<svg xmlns="http://www.w3.org/2000/svg" width="1820" height="1024" viewBox="0 0 1820 1024"><path fill="#fff" d="M0 0h1820v1024H0z"/><path fill="#111827" d="M228.306 408.39c.459-57.391 15.876-108.544 57.942-148.837 80.423-77.032 205.189-72.869 281.321 5.682a197.85 197.85 0 0 1 55.328 139.687c-.808 46.17-21.382 96.587-54.888 128.68a294 294 0 0 1-8.131 7.486c-1.271 41.949-.058 90.175-.009 132.534 4.72.031 32.46-.233 34.941.389l.775 1.402-.759 1.596c-6.154 1.125-27.306.506-34.976.443l.012 21.361c6.561.11 31.619-1.041 35.748 1.341l.367 1.699-1.127 1.253c-11.515.145-23.329-.004-34.87-.036l-.051 21.301c7.744.054 28.615-.851 35.015.833l.504 2.055c-2.51 1.932-30.015 1.19-35.38 1.193l-.039 21.546c9.555.065 27.595-1.255 35.6 1.495l-.228 1.56.799-1.203-.034.922c-4.264 1.652-30.034 1.062-36.094 1.004l-.047 20.933c9.979.35 25.72-.749 35.028.816l.668.982c-3.599 3.736-29.18 2.15-35.512 2.116l-.263 171.185c-56.953 1.201-118.553.063-175.739-.122l-318.947.372c-.976-54.364-.153-111.445-.227-166.092l-.047-375.625c52.54.229 110.992 1.278 163.32.049"/><path fill="#ff9f1c" d="M228.306 408.39c.459-57.391 15.876-108.544 57.942-148.837 80.423-77.032 205.189-72.869 281.321 5.682a197.85 197.85 0 0 1 55.328 139.687c-.808 46.17-21.382 96.587-54.888 128.68a294 294 0 0 1-8.131 7.486l.267-132.898-214.15.148c-38.872-.002-78.911-.64-117.689.052"/><path fill="#fff" d="m69.006 412.644 486.809-.149.357 533.046-486.915.237z"/><path fill="#111827" d="m198.721 543.983 230.233-.024c1.795 36.635.464 85.836.467 123.133q.275 121.083-1.007 242.16-114.781-.747-229.564.005z"/><path fill="#fff" d="m202.756 548.325 222.293-.047.216 132.404q.467 70.241-.181 140.481c-17.618 1.243-53.775.072-72.577.055l-149.6.044c.403-36.3-.069-73.465-.068-109.871z"/><path fill="#2ec4b6" d="m215.794 560.656 125.476.053c13.869-.042 50.052-1.193 61.58.432-1.688 13.073-.539 50.689-.519 66.194l-.043 135.395c-.003 7.297 1.02 41.079-.346 46.304-5.601 2.104-166.955.819-186.055.828z"/><path fill="#111827" d="m215.794 560.656 125.476.053c13.869-.042 50.052-1.193 61.58.432l-1.468 3.018c-4.452.89-45.317.481-52.333.439-42.994-.255-86.393.443-129.334-.018l.246 240.855c17.716-.025 179.271-.716 181.481.478l.5 3.121c-5.601 2.104-166.955.819-186.055.828z"/><path fill="#2ec4b6" d="m203.163 890.556 221.211.086-.044 14.025c-20.612 1.125-52.074.109-73.36.115l-147.784-.029z"/><path fill="#2ec4b6" d="m202.852 825.189 221.865.285-.044 13.057-221.778-.089z"/><path fill="#2ec4b6" d="m202.888 857.958 221.375-.01-.03 13.085-221.25-.12z"/><path fill="#fff" d="m202.851 874.797 221.64.034-.002 11.553-221.591-.069z"/><path fill="#fff" d="m202.887 842.442 221.799.081-.135 11.222-221.611.078z"/><path fill="#111827" d="m105.881 544.164 80.316-.125.161 269.19-.366 1.207c-2.196 1.53-70.416.788-80.135.741z"/><path fill="#2ec4b6" d="m169.685 548.335 12.435.075.015 262.328-11.904.113c.463-35.314-.254-71.527-.382-106.921z"/><path fill="#fff" d="m154.581 548.227 11.073.054a6410 6410 0 0 0 .388 92.918l.177 170.037-11.575-.05z"/><path fill="#fff" d="m124.558 548.282 11.131.087.244 262.738-11.18-.109z"/><path fill="#2ec4b6" d="m110.051 548.357 10.744-.008-.02 262.438c-3.407.057-6.906.426-10.019-.828-2.016-7.44-.751-50.057-.784-60.755z"/><path fill="#2ec4b6" d="M139.586 548.361c3.194-.018 7.553-.352 10.366.798.77 9.254.398 22.635.394 32.226l-.042 56.113.127 173.331-10.813-.024z"/><path fill="#111827" d="m198.469 446.612 229.495.003q.528 41.542.165 83.087l-229.568.015c.422-27.319.033-55.712-.092-83.105"/><path fill="#2ec4b6" d="m202.632 450.768 221.184-.052.022 12.823-221.229-.148z"/><path fill="#2ec4b6" d="m202.624 482.71 221.231-.044-.019 11.977-221.155.01z"/><path fill="#fff" d="m202.493 498.295 221.726.189.008 11.755-221.719-.01z"/><path fill="#2ec4b6" d="m202.636 514.331 221.488-.022c.109 4.054-.038 7.204-.28 11.261-73.351.477-148.088-.612-221.05.361z"/><path fill="#fff" d="m273.865 467.113 150.175-.086.088 11.49-71.77.006-149.722.043-.066-11.418c23.577.257 47.677-.014 71.295-.035"/><path fill="#111827" d="m440.196 543.699 20.201-.054.116 179.54.039 56.125c.011 9.486-.36 23.037.495 32.22l1.092.904c2.873.218 4.386.53 7.135-.515 3.979-4.86 1.908-12.04 1.944-18.477l.116-62-.1-187.619 20.248.061-.095 178.48.086 60.269c.013 6.133-1.795 26.295 2.106 29.859 2.924.102 5.406.617 7.62-1.009 1.115-5.356.702-17.479.665-23.483l.112-244.062 19.866.011-.058 272.719-81.35.009z"/><path fill="#2ec4b6" d="m444.349 547.663 12.228.007.214 264.83-12.382-.015z"/><path fill="#2ec4b6" d="m475.285 547.624 11.917-.013-.171 264.928-11.759.006z"/><path fill="#2ec4b6" d="m505.782 548.292 12.302.002-.194 264.178-12.121.047c.742-88.074.746-176.153.013-264.227"/><path fill="#111827" d="m440.102 827.619 81.916.03q.217 40.733-.008 81.467c-7.595.554-20.275.191-28.226.194l-53.802.009z"/><path fill="#2ec4b6" d="m444.104 831.971 73.945.1.173 72.655-73.929.197z"/><path fill="#111827" d="m440.826 446.922 80.869.217.18 82.053-81.168.409z"/><path fill="#2ec4b6" d="m445.214 451.293 72.777.095.016 73.878-72.816.036z"/><path fill="#111827" d="M105.812 446.445q39.883.156 79.764-.191l.093 83.159-79.903-.154z"/><path fill="#2ec4b6" d="m109.598 450.586 72.089-.016-.216 74.824-71.925-.085z"/><path fill="#111827" d="m105.809 827.537 80.528.042c.626 26.335.065 55.017.077 81.542l-80.359.148c-1.423-22.19-.303-58.475-.246-81.732"/><path fill="#2ec4b6" d="m110.211 831.588 71.917.069.093 73.059-72.064-.041z"/><path fill="#111827" d="m1271.77 69.452 484.53-.177.43 342.836c0 51.881.52 104.632-.2 156.429-38.27.898-78.76.171-117.17.124l-265.49.156c.56 32.508-10.1 62.776-32.68 86.425a111.5 111.5 0 0 1-78.08 34.092 107.58 107.58 0 0 1-76.95-30.129 108.42 108.42 0 0 1-33.2-76.8 112.64 112.64 0 0 1 32.62-81.267c24.06-24.555 52.37-34.804 86.19-35.2.36-48.711.33-97.423-.07-146.133l.04-20.353z"/><path fill="#ff9f1c" d="M1373.87 568.82c.56 32.508-10.1 62.776-32.68 86.425a111.5 111.5 0 0 1-78.08 34.092 107.58 107.58 0 0 1-76.95-30.129 108.42 108.42 0 0 1-33.2-76.8 112.64 112.64 0 0 1 32.62-81.267c24.06-24.555 52.37-34.804 86.19-35.2l-.08 102.928z"/><path fill="#fff" d="m1275.82 73.66 476.26-.097.32 491.039-378.82-.053-97.79.102.11-98.197z"/><path fill="#111827" d="M1304.26 450.613c26.19-.153 55.58-.83 81.66.041l-.18 84.747-17.16.208c2.34 10.199 3.54 18.626 5 28.94l-97.79.102.11-98.197c10.6 1.457 17.74 2.485 27.98 5.608z"/><path fill="#ff9f1c" d="M1275.9 466.454c10.6 1.457 17.74 2.485 27.98 5.608-.19 21.253-.22 42.506-.11 63.759 20.61-.225 44.7.447 64.81-.212 2.34 10.199 3.54 18.626 5 28.94l-97.79.102z"/><path fill="#2ec4b6" d="m1308.12 454.382 73.73.078.3 76.944-15.2.011-59 .102c-.13-19.438-.11-38.876.07-58.314z"/><path fill="#ff9f1c" d="M1308.02 473.203c31.93 12.774 43.07 29.241 58.93 58.212l-59 .102c-.13-19.438-.11-38.876.07-58.314"/><path fill="#111827" d="m1569.03 201.33 58.7.155.49 173.617c.05 17.867.31 40.949-.06 59.254-.48.792-.89 1.458-1.22 1.996l-1.45.078c-1.79-2.363-1.14-73.924-1.16-82.343q-.69-74.344-.54-148.692l-215.2-.006.02 13.367 134.21-.031 70.08.041c.41 72.504.4 145.01-.02 217.515l-207.8-.018c-.93-78.039.69-156.518-.84-234.662z"/><path fill="#2ec4b6" d="m1409.03 223.021 199.7.016-.01 209.164-199.7-.01z"/><path fill="#111827" d="M1405.19 100.622c72.78-.274 149.24-1.135 221.8.142.21 8.589.98 83.248-.94 85.994l-221.83.137c1.62-25.919-1.51-62.234.97-86.273"/><path fill="#2ec4b6" d="m1408.65 104.792 214.11-.031.01 13.445-214.11.068z"/><path fill="#2ec4b6" d="m1408.63 137.787 214.34-.046c.08 4.559-.01 8.276-.26 12.83l-214.08.095z"/><path fill="#2ec4b6" d="m1409.04 170.198 213.8-.106-.17 12.486-214.08.422c-.08-3.996-.39-8.988.45-12.802"/><path fill="#fff" d="m1480.83 122.222 142.11-.206.07 11.932-70.28-.043-144.14-.089-.04-11.454z"/><path fill="#fff" d="m1408.52 154.697 214.43-.033v11.478l-214.44.068z"/><path fill="#111827" d="m1587.96 450.228 40.4-.043c.28 28.514.33 57.03.16 85.545q-89.88.327-179.76-.337l-43.81.029.02-85.026z"/><path fill="#2ec4b6" d="m1409.29 517.376 215.23-.362.01 14.548-215.21-.181z"/><path fill="#2ec4b6" d="m1409.18 485.265 215.36-.038-.01 13.428-215.35.005z"/><path fill="#2ec4b6" d="m1409.04 454.333 215.43-.075c.16 4.317.31 6.721-.29 10.966l-1.35.989-213.87.133z"/><path fill="#fff" d="m1409.05 502.361 215.4.194.07 10.682-215.28.161z"/><path fill="#fff" d="m1408.9 470.091 215.78.103-.04 10.879-215.61-.232z"/><path fill="#111827" d="m1305.42 201.854 80.2.006c-.94 77.947.28 156.361-.27 234.364l-79.93-.083-.12-152.479c-.02-25.767-.96-56.55.12-81.808"/><path fill="#2ec4b6" d="m1369.41 205.619 12.23.099.08 226.418-12.64.052c1.03-74.912.09-151.484.33-226.569"/><path fill="#2ec4b6" d="m1339.02 206.234 11.52-.016.08 225.914-11.97.004z"/><path fill="#2ec4b6" d="m1309.15 206.198 11.12-.012.24 226.005-11.28-.084z"/><path fill="#fff" d="m1361.22 205.474 2.26.371c2.75 3.703 1.57 26.911 1.57 33.019l.05 65.347c.03 39.111 1.45 88.204-.13 126.803-2.06 1.693-3.8 1.424-6.81 1.882l-2.5-.942c-.35-.538-.8-1.02-1.04-1.613-.27-.667-.97-210.225.07-223.19 2.19-1.871 3.16-1.354 6.53-1.677"/><path fill="#fff" d="m1324.27 205.693 10.52.065-.08 226.536c-3.22.091-7.54.561-10.2-.877-1.44-23.48-.33-59.188-.32-83.394z"/><path fill="#111827" d="m1646.11 202.325 65.46.074.15 234.071-65.2.015z"/><path fill="#2ec4b6" d="m1665.3 206.352 11.65.036.16 226.124-11.81.004z"/><path fill="#2ec4b6" d="m1696.44 206.57 11.39.071-.02 225.677-11.48.052z"/><path fill="#fff" d="M1681.34 206.265c3.51.01 7.56-.59 10.35 1.128.96 4.579.52 55.692.52 62.92l-.07 162.094-11.09-.113z"/><path fill="#fff" d="M1650.29 206.243c3.32-.026 7.96-.556 10.52 1.053.69 6.701.34 19.256.33 26.433l.01 46.299.04 152.776-10.81-.014z"/><path fill="#111827" d="m1306.55 101.775 79.82.192c.02 9.518 1.05 80.2-1.13 83.03l-80-.144c-.1-10.578-1.53-78.807 1.31-83.078"/><path fill="#2ec4b6" d="m1310.28 106.219 72.17-.313c.04 7.955 1.1 71.74-.69 74.889l-72.61.044c.02-8.642-.97-71.177 1.13-74.62"/><path fill="#111827" d="M1644.16 450.575c25.82-.412 53.11.112 79.05.174l.09 84.414-79.17.235z"/><path fill="#2ec4b6" d="m1648.41 454.804 70.61.18c.28 25.466.33 50.933.17 76.4-21.52.868-48.88.104-70.84.105z"/><path fill="#111827" d="M1643.65 102.077c25.53-.694 53.02-.234 78.7-.234.14 27.316.09 54.633-.12 81.948l-78.73-.038z"/><path fill="#2ec4b6" d="m1647.74 106.165 70.44-.229.04 73.727-70.54-.082q-.15-36.708.06-73.416"/><path fill="#111827" d="M907.345 90.158c.575.282.851.38 1.374.833 4.101 3.55 37.134 212.478 40.977 239.182-5.447.801-11.679 2.109-17.163 3.141 7.032 9.088 19.267 21.589 27.416 30.346.727 19.282.286 42.531.369 62.104l18.261-.019.197 27.653 17.602-.031.015 25.795 19.087-.037.07 24.513c49 33.38 69.89 77.754 81.94 133.779 2.21 10.283 8.76 33.144 14.77 41.271l.4.532c5.35 7.202 12.89 11.003 17.73 18.545.61 13.515 0 28.562.46 42.593 32.63 17.972 28.11 23.846 27.83 58.093 15.07 7.269 26.6 12.093 35.37 27.219.25 9.362.14 19.312.2 28.724 58.79 30.028 7.43 59.588-29.17 71.216-80.47 25.563-166.645 32.058-250.625 32.979-64.003.226-134.51-3.37-197.45-15.132-35.959-8.68-89.088-15.772-113.475-45.728-14.893-18.295 5.94-34.446 20.131-43.961-.602-41.159 1.596-35.137 33.871-54.513-.348-36.895-4.388-43.411 31.141-61.049l.029-40.187c5.099-7.465 11.522-9.602 16.441-18.737 14.686-27.268 17.821-57.09 28.713-85.711 14.488-38.068 35.028-67.823 69.737-89.537l.03-24.821 18.716-.107.132-25.492 16.543-.015.049-28.256 19.338.087.007-61.43c7.6-9.487 18.024-19.188 26.376-29.38-6.044-2.066-10.06-3.515-16.356-4.692 3.228-13.187 6.454-40.924 8.801-55.422l20.196-126.162c2.012-12.797 6.172-47.068 9.92-58.186"/><path fill="#fff" d="M806.384 507.608c21.13-.775 46.528-.084 68.203-.101l139.053.184c34.38 19.01 62.35 64.423 72.51 101.351 8.24 29.976 9.87 49.661 26.45 76.849-25.84 17.688-74.57 25.257-106.18 29.133-75.498 9.758-233.687 10.279-300.724-28.513 17.904-32.48 21.261-66.173 35.226-99.707 13.281-31.891 34.336-62.645 65.462-79.196"/><path fill="#fff" d="M1158.64 802.962c40.29 18.878 32.79 28.899 31.47 69.396-.37.549-.76 1.088-1.16 1.615-20.49 26.778-105.6 38.5-138.28 43.591-89.787 13.986-346.37 16.005-417.545-38.365-1.771-1.861-3.932-5.139-5.489-7.346-.149-10.33-.12-21.173-.358-31.453-.504-21.831 12.187-28.178 30.058-35.963a601 601 0 0 0 .257 26.354c46.318 63.414 464.627 62.722 500.927-2.199z"/><path fill="#fff" d="M703.2 688.819c37.546 28.162 135.157 33.454 181.876 35.556 47.089 2.118 196.164-4.051 230.064-36.542 5.2 4.253 7.95 6.361 11.59 12.072.12 13.584.15 27.168.08 40.752-78.76 46.941-295.697 44.268-385.354 20.306-15.638-4.18-37.18-9.952-48.826-22.099-.217-11.698.198-25.634-.309-36.911.424-4.867 7.166-9.85 10.879-13.134"/><path fill="#ff9f1c" d="M703.2 688.819c37.546 28.162 135.157 33.454 181.876 35.556 47.089 2.118 196.164-4.051 230.064-36.542 5.2 4.253 7.95 6.361 11.59 12.072-81.45 51.428-275.463 45.104-369.316 26.12-25.741-5.206-41.993-12.252-63.896-25.311l-1.197 1.239c.424-4.867 7.166-9.85 10.879-13.134"/><path fill="#fff" d="m661.699 777.318 4.928 4.895c65.181 64.024 424.773 61.616 487.813-2.691.21 15.89.05 32.103.05 48.021-15.61 37.937-206.033 47.261-244.96 46.686-53.283-.787-208.862-5.441-247.991-44.04-.947-13.524-.535-39.324.16-52.871"/><path fill="#fff" d="M689.449 742.099c1.779.293 8.92 7.609 14.407 10.042 16.213 7.188 30.347 11.476 47.563 15.14a617 617 0 0 0 90.069 12.341c70.849 4.971 226.722 3.249 287.032-35.887 30.89 14.037 35.33 29.942 3.75 47.256-82.27 40.107-273.663 39.536-364.142 23.856-28.745-4.982-83.819-15.597-103.13-40.224-2.111-2.692-3.279-6.809-2.469-10.275 2.199-9.4 18.918-17.677 26.92-22.249"/><path fill="#ff9f1c" d="M1194.29 858.934c6.81 3.612 13.68 8.007 18.28 14.329 2.88 3.963 4.61 8.7 3.8 13.639-1.11 6.676-6.36 11.837-11.62 15.608-60.26 43.148-230.187 52.596-303.554 52.153-56.156-.339-113.61-3.504-169.071-12.651-32.49-5.358-107.271-19.805-125.955-46.637-2.866-4.115-4.276-8.885-3.285-13.87 2.089-10.511 12.37-17.282 20.639-22.85.132 4.276.033 8.83.015 13.13 7.1 15.494 26.084 22.718 41.125 28.281 109.986 40.684 397.746 42.319 503.526-6.532 9.25-4.271 21.76-10.664 25.69-20.611.24-.604.42-1.215.59-1.84-.26-3.271-.14-8.706-.18-12.149"/><path fill="#fff" d="M1194.29 858.934c6.81 3.612 13.68 8.007 18.28 14.329 2.88 3.963 4.61 8.7 3.8 13.639-1.11 6.676-6.36 11.837-11.62 15.608-60.26 43.148-230.187 52.596-303.554 52.153-56.156-.339-113.61-3.504-169.071-12.651-32.49-5.358-107.271-19.805-125.955-46.637-2.866-4.115-4.276-8.885-3.285-13.87 2.089-10.511 12.37-17.282 20.639-22.85.132 4.276.033 8.83.015 13.13-3.397 4.987-6.312 9.014-5.089 15.303 1.241 6.383 6.128 11.18 11.375 14.628 19.191 12.614 44.519 18.662 66.622 23.97 118.334 28.415 296.314 27.388 414.883 1.547 22.27-4.853 73.83-15.412 85.94-34.515 2.35-3.707 3.5-8.545 2.44-12.874-.77-3.132-3.27-6.251-5.24-8.761-.26-3.271-.14-8.706-.18-12.149"/><path fill="#fff" d="M807.8 483.389c22.304-.511 46.073-.002 68.559.006l134.951-.111.05 20.33c-21.668.415-45.273-.149-67.141-.176l-136.425-.004z"/><path fill="#fff" d="m826.505 457.833 166.016-.085c.058 7.162-.028 14.437-.044 21.61l-165.964-.191z"/><path fill="#fff" d="m843.355 429.404 131.448.191-.026 23.951-131.471.137z"/><path fill="#fff" d="M909.761 320.677c3.987 4.046 10.165 11.784 14.138 16.406.572 29.176.181 59.289.126 88.539l-13.62.082-15.642-.298-.035-88.005c5.355-6.514 9.055-10.825 15.033-16.724"/><path fill="#fff" d="M889.248 335.757c2.653 4.015 1.17 78.797 1.149 89.996l-27.261-.01c-1.981-2.742-.799-52.676-.737-59.808 8.383-10.161 18.115-19.696 26.849-30.178"/><path fill="#fff" d="m928.458 335.836 27.651 30.131c.077 15.933 1.046 44.982-.236 59.655l-27.739-.117c-.192-18.279-.029-36.903-.005-55.2.013-10.112-.395-24.713.329-34.469"/><path fill="#ff9f1c" d="m877.905 299.398 62.915-.015c.492 3.586 1.97 9.254.88 12.153-21.306.447-44.348-.016-65.786-.143z"/><path fill="#ff9f1c" d="m880.236 283.59 57.881-.172c.697 3.863 1.707 8.003 1.138 11.844a5882 5882 0 0 0-60.876.1z"/><path fill="#ff9f1c" d="m924.567 267.123 10.609-.049 2.248 12.47-44.753.105-11.733.039 1.982-12.341z"/><path fill="#ff9f1c" d="m885.373 251.415 47.293.031c.904 4.367 1.374 7.362 1.84 11.796l-50.705.013z"/><path fill="#ff9f1c" d="M902.632 235.117q13.707-.086 27.412-.323c.78 4.086 1.45 8.374 2.159 12.49l-15.76-.004-30.372.127 2.119-12.215z"/><path fill="#ff9f1c" d="m890.713 218.838 36.907.037q.473 2.157.884 4.328c.575 3.148 1.465 5.753-.036 7.944l-39.612.084q.894-6.201 1.857-12.393"/><path fill="#ff9f1c" d="m892.992 202.725 31.9.055c.755 3.905 1.825 8.429 1.752 12.346l-35.698.056z"/><path fill="#ff9f1c" d="m895.66 186.671 26.539-.016c.78 4.099 1.736 8.262 1.739 12.424l-30.323.041z"/><path fill="#ff9f1c" d="m875.185 315.546 33.167-.017-6.505 7.444c-4.872 5.242-21.135 3.284-28.47 3.175z"/><path fill="#ff9f1c" d="m911.052 315.56 32.224-.021 1.761 10.445c-7.943.247-16.898.04-24.92.036z"/><path fill="#ff9f1c" d="m897.899 170.491 21.794.08c.57 3.161 1.958 9.343.819 11.981l-24.323.138a363 363 0 0 0 1.71-12.199"/><path fill="#ff9f1c" d="m901.32 153.964 15.389-.047c.681 3.525 2.541 9.443.296 12.316l-18.071.024a382 382 0 0 1 2.386-12.293"/><path fill="#ff9f1c" d="M903.355 137.744c3.47-.124 7.142-.729 9.957 1.054 2.839 3.786 2.206 5.899 2.011 10.882l-13.802-.018z"/><path fill="#ff9f1c" d="M906.046 120.69c6.261 1.356 8.357 9.66 5.563 13.765-4.158-.218-3.96.435-6.866-1.624-1.293-3.047.516-8.658 1.303-12.141"/><path fill="#2ec4b6" d="m1491.89 709.202 237.71.896.12 245.605-237.74.079.09-177.373c-25.48-1.163-255.02 1.075-258.83-1.091l-.32-1.706c2.52-2.48 8.55-1.638 12.27-1.604 17.57.161 35.14.085 52.71.033 16.85-1.312 47.11-.552 64.81-.608l129.08-.091-.03-19.524c-23.85-.998-50.74-.377-74.8-.291l-114.23.124-43.56.075c-7.17.008-19.04.329-25.87-.607l.35-2.808c3.22-2.038 76.84-1.172 86.27-1.169l171.79.079c.35-5.643.11-14.148.12-20.007-5.94-.714-19.42-.407-25.67-.399l-44.72.016c-44.95-.028-89.63-.61-134.79-.46-13.64.045-37.53.646-51.93-.307-.47-.448-.94-.896-1.4-1.344 1.44-1.46 8.62-2.747 10.68-2.709 26.41.492 52.86.276 79.28.296l168.41.369z"/><path fill="#111827" d="M1491.83 729.214c-5.94-.714-19.42-.407-25.67-.399l-44.72.016c-44.95-.028-89.63-.61-134.79-.46-13.64.045-37.53.646-51.93-.307-.47-.448-.94-.896-1.4-1.344 1.44-1.46 8.62-2.747 10.68-2.709 26.41.492 52.86.276 79.28.296l168.41.369c39.09 2.195 79.59-.625 118.8.644 2.51.081 4.08.439 6.01 1.971-3.02 2.991-9.46 2.434-13.74 2.414-23.95-.161-47.9-.198-71.84-.112-10.61.005-29.2.528-39.09-.379"/><path fill="#111827" d="M1297.9 774.041c28.05.624 57.65.119 85.82.075l146.51-.162c9.86-.013 82.85-1.063 86.12 1.34l-.1 2.047c-2.49 1.807-33.46.995-39.58 1.008l-84.6.06c-25.48-1.163-255.02 1.075-258.83-1.091l-.32-1.706c2.52-2.48 8.55-1.638 12.27-1.604 17.57.161 35.14.085 52.71.033"/><path fill="#111827" d="m1233.3 753.119.35-2.808c3.22-2.038 76.84-1.172 86.27-1.169l171.79.079 85.63.142c7.72.012 31.89-.558 37.87.509l1.23 1.382-.56 1.661c-4.5 2.028-127.23.059-139.42-.021l-156.11.061c-26.23.023-61.38-.988-87.05.164"/><path fill="#111827" d="m295.202 40.803 367.279-.089c.507 35.417.093 71.113.272 106.556.015 2.822.4 4.995-1.518 6.866l-365.732-.034c-1.078-36.221-.282-76.681-.301-113.299"/><path fill="#fff" d="m299.56 45.249 358.763.03.043 19.634-.016 84.707-358.81.284-.011-85.544z"/><path fill="#2ec4b6" d="m299.56 45.249 358.763.03.043 19.634c-5.447-.633-28.165-.201-34.922-.224l-73.929-.319-249.986-.01z"/><path fill="#2ec4b6" d="m64.145 86.39 167.047-.161-.083 173.558-167.152.048z"/><path fill="#2ec4b6" d="m1023.65 44.406 164.42-.106c.16 55.12.04 110.241-.35 165.36-4.42.838-40.32.412-46.91.408l-117.06-.114z"/><path fill="#111827" d="M1300.25 806.827c15.23 9.112 31.4 17.562 46.95 26.215l87.01 48.827-16.07 8.808a319 319 0 0 0 15.37 9.31c-42.98 24.719-86.33 47.713-128.93 73.644.06-4.301.7-14.449-.93-17.925l-2.59-.763c-1.39-2.341-.94-134.146-.81-148.116"/><path fill="#2ec4b6" d="M1303.65 955.706c8.05-3.566 28.03-15.808 36.74-20.768l77.75-44.261a319 319 0 0 0 15.37 9.31c-42.98 24.719-86.33 47.713-128.93 73.644.06-4.301.7-14.449-.93-17.925"/><path fill="#2ec4b6" d="m1304.24 813.619 73.25 41.027c15.33 8.535 32.84 17.824 47.43 27.204-3.16 2.297-8.18 4.869-11.71 6.816l-66.86 38.119c-6.15 3.442-33.55 18.285-38.29 22.186l-2.64.995c-1.72-2.223-1.15-123.572-1.18-136.347"/><path fill="#fff" d="m1304.24 813.619 73.25 41.027c15.33 8.535 32.84 17.824 47.43 27.204-3.16 2.297-8.18 4.869-11.71 6.816-10.58-5.171-20.91-11.908-31.22-17.766l-46.92-26.138c-6.92-3.927-19.57-11.63-26.38-14.779.18 28.19.16 56.381-.05 84.57-.11 10.204.11 24.445-.58 34.418l-2.64.995c-1.72-2.223-1.15-123.572-1.18-136.347"/><path fill="#2ec4b6" d="m669.444 398.226 93.011-.057q.138 47.728-.224 95.457l-92.934.258z"/><path fill="#111827" d="m708.803 67.2 89.716-.024c.753 29.158-.083 62.087-.145 91.552-27.818.955-61.194.061-89.469.073z"/><path fill="#2ec4b6" d="M1139.8 299.395c18.68-.085 37.32-.485 55.98-.495 5.18-.002 17.11-.192 21.9.467l2.63.053c-.05 5.512.15 15.271-.34 20.433l-10.35.222-.27.582c-4.31-1.244-23-.675-28.58-.629v22.666c.1 18.067.77 93.044-.21 116.734-.36.39-.73.78-1.1 1.171-2.92.317-3.8.489-6.75-.042-3.98-3.726-1.96-15.983-1.96-22.002l-.08-53.521c-.78-19.509-.04-45.364 0-65.266-5.85-.053-26.66-.566-31.19.768l-.14-.677c-3.57.002-6.32-.153-9.89-.433l-.29-20.01z"/><path fill="#477eb0" d="m1171.15 319.949 9.27.058c-.33 5.264-.68 17.754.35 22.687.1 18.067.77 93.044-.21 116.734-.36.39-.73.78-1.1 1.171-2.92.317-3.8.489-6.75-.042-3.98-3.726-1.96-15.983-1.96-22.002l-.08-53.521c1.87-6.936.64-55.263.48-65.085"/><path fill="#014a84" d="m1217.68 299.367 2.63.053c-.05 5.512.15 15.271-.34 20.433l-10.35.222c-.19-5.993-1.27-13.59.61-18.76 2.67-2.507 2.77-1.69 7.45-1.948"/><path fill="#014a84" d="m1129.16 299.416 10.64-.021c-.05 5.102.11 15.845-.46 20.464-3.57.002-6.32-.153-9.89-.433z"/><path fill="#014a84" d="M1171.15 319.949c-.24-5.821-2.33-20.744 5.48-22.056 5.74 4.152 4.67 15.814 3.79 22.114z"/><path fill="#111827" d="M1232.54 698.844c5.82-.755 23.89-.336 30.47-.318l61.03.12 212.73.312c9.95.012 76.42-.969 79.4 1.2l.08 2.97-264.61-.496c-31.57-.012-83.85.571-116.74-.443-1.48-.045-1.91-2.066-2.36-3.345"/><path fill="#477eb0" d="m1209.62 320.075 10.35-.222c-1.28 33.638.51 69.516-.14 103.309-.12 6.073.52 32.472-.66 36.481-2.26 1.442-3.99 1.105-6.73 1.078-4.02-3.088-3.66-8.455-3.49-13.256 1.48-42.109-.98-84.75.4-126.808z"/><path fill="#477eb0" d="m1090.3 319.39.23.564c-.35 38.108-.27 98.809-.39 138.957l-1.2 1.405c-2.77.44-4.02.852-6.69-.222-4.84-4.491-2.3-26.57-2.37-34.337l-.28-105.121.18-.517c4.06-.007 6.56.103 10.52-.729"/><path fill="#477eb0" d="M1054.91 319.906c-.05 5.134-.67 39.765.55 42.583.27 28.936-.37 57.882.06 86.816.05 3.569.16 6.58-.46 10.117-2.4 2.508-1.24 1.879-4.35 2.7-3.18-1.139-6.08-4.275-6.01-7.762.95-43.8-.78-87.905.26-131.675l.12-2.586z"/><path fill="#477eb0" d="M1129.45 319.426c3.57.28 6.32.435 9.89.433l.14.677c.29 31.954.32 63.909.11 95.863-.04 13.168.06 26.409.12 39.58.01 2.678-.63 2.977-2.2 4.428-3.06.908-3.51.746-6.62-.088-.41-.43-.83-.859-1.24-1.289-.55-35.813.34-106.229-.35-139.066z"/><path fill="#111827" d="M1331.32 674.213c54.6-.845 111.19.248 165.97.145l77.4-.079c7.79-.006 37.63-1.422 41.77 1.872l-.24 1.194-2.29.871-205.81-.072-53.13-.035c-5.69.021-24.58 1.743-27.35-2.261 1.34-1.54 1.19-1.078 3.68-1.635"/><path fill="#2ec4b6" d="m1271.74 299.455-.04 20.353c-17.24-.116-34.48-.101-51.73.045.49-5.162.29-14.921.34-20.433z"/><path fill="#2ec4b6" d="M1090.32 299.211c12.94.232 25.89.3 38.84.205l.29 20.01-.15.538c-12.66-.292-26.05-.057-38.77-.01l-.23-.564z"/><path fill="#2ec4b6" d="M1054.92 299.183c5.77.044 31.89-.649 35.4.028l-.02 20.179c-3.96.832-6.46.722-10.52.729l-.18.517c-4.09-1.201-18.83-.706-24.11-.679.05 13.799.38 28.832-.03 42.532-1.22-2.818-.6-37.449-.55-42.583z"/><path fill="#014a84" d="M1079.42 299.531c3.63-.041 7.27-.148 10.9-.32l-.02 20.179c-3.96.832-6.46.722-10.52.729-.37-6.228-.26-14.219-.36-20.588"/><path fill="#2ec4b6" d="M1026.22 299.31c6.96-.201 22.45-1.052 28.7-.127l-.01 20.723-9.83.193-.12 2.586c-.3-1.027-.74-1.437-1.38-2.333-4.7-1.026-12.29-.563-17.31-.463z"/><path fill="#014a84" d="m1054.92 299.183-.01 20.723-9.83.193c-1.36-4.502-2.13-14.579.31-18.85 3.5-2.437 4.75-1.746 9.53-2.066"/><path fill="#111827" d="M724.03 269.001c3.575 2.584 8.639 9.641 11.442 13.349-2.636 4.015-6.758 8.483-9.964 12.185l-1.677-.127c-3.96-3.589-6.412-7.807-9.325-12.262 3.244-5.299 5.66-8.32 9.524-13.145"/><path fill="#111827" d="M757.644 268.919c2.321 1.594 9.009 10.174 11.228 12.89l-10.123 12.811c-3.389-1.02-9.027-9.614-11.296-12.809z"/><path fill="#111827" d="M691.099 269.013c4.221 3.498 7.638 8.432 11.002 12.82-2.157 3.623-6.419 8.825-9.099 12.305-.879.177-1.239-.025-2.215-.2-4.259-3.959-6.503-7.717-9.725-12.51z"/><path fill="#111827" d="M658.392 269.125c3.69 3.052 8.087 9.228 10.821 13.218-3.972 5.965-5.382 7.693-10.281 12.8-3.453-2.886-7.879-9.158-10.289-12.917 2.293-3.945 6.82-9.368 9.749-13.101"/><path fill="#111827" d="M691.975 332.18c2.387 2.348 8.358 9.804 10.793 12.683-3.378 4.758-6.907 8.846-10.659 13.294-4.252-4.403-7.137-7.962-10.946-12.72 3.3-4.422 7.258-8.987 10.812-13.257"/><path fill="#111827" d="M724.569 332.508c3.55 2.723 8.402 9.304 11.278 12.996-3.225 4.166-6.823 8.202-10.277 12.194-13.795-8.742-9.995-15.731-1.001-25.19"/><path fill="#111827" d="M658.471 332.242c13.119 10.216 9.761 15.152.682 25.361-4.527-2.623-8.561-8.584-11.192-12.939z"/><path fill="#111827" d="M723.742 206.781c4.011 1.768 8.409 9.272 10.806 13.154-3.02 4.767-5.839 8.306-9.304 12.725-4.314-2.013-8.356-9.778-10.187-13.966 3.308-5.385 4.529-7.083 8.685-11.913"/><path fill="#111827" d="M690.792 206.816c4.241 1.378 8.288 8.76 10.643 12.627-3.01 5.433-5.382 8.201-9.25 13.001-3.796-3.166-7.909-8.858-10.82-12.903 3.496-5.608 5.086-7.736 9.427-12.725"/><path fill="#111827" d="M624.921 205.891c3.454 3.693 7.042 9.159 10.013 13.386-3.352 5.252-5.922 8.38-9.863 13.169-4.374-4.756-6.778-7.838-10.592-13.069 2.795-4.043 7.314-9.502 10.442-13.486"/><path fill="#111827" d="M658.023 205.909c3.964 3.995 7.403 8.548 10.466 13.251-2.387 4.465-6.065 8.865-9.203 12.905-3.374-.722-8.621-9.115-10.751-12.245 2.634-4.641 6.344-9.527 9.488-13.911"/><path fill="#111827" d="M758.246 332.171c2.663 2.452 8.359 9.893 10.926 13.101-3 4.028-7.065 8.403-10.435 12.221-2.821-1.104-8.665-8.562-10.885-11.184 2.734-4.418 7.166-9.901 10.394-14.138"/><path fill="#111827" d="M625.278 332.056c1.425 1.005 9.716 11.217 11.397 13.24l-11.012 12.845c-2.895-2.176-7.905-9.937-10.145-13.219q4.923-6.4 9.76-12.866"/><path fill="#111827" d="M625.114 268.925c3.246 2.791 7.991 9.187 10.817 12.753l-9.939 13.005c-3.195-1.728-8.494-9.654-10.8-12.874 2.85-4.236 6.702-8.837 9.922-12.884"/><path fill="#111827" d="M757.394 206.973c4.102 3.575 8.043 8.603 11.587 12.828l-10.244 11.849c-4.283-.737-7.947-7.77-10.212-11.499 2.352-4.775 5.683-8.909 8.869-13.178"/></svg>